<svg width="12" height="12" viewBox="0 0 12 12" fill="none" xmlns="http://www.w3.org/2000/svg">
<path d="M0.939378 9.79289C0.548853 10.1834 0.548853 10.8166 0.939378 11.2071C1.3299 11.5976 1.96307 11.5976 2.35359 11.2071L0.939378 9.79289ZM11.6465 1.5C11.6465 0.947716 11.1988 0.5 10.6465 0.5L1.64648 0.5C1.0942 0.5 0.646485 0.947715 0.646485 1.5C0.646485 2.05228 1.0942 2.5 1.64648 2.5L9.64648 2.5L9.64648 10.5C9.64648 11.0523 10.0942 11.5 10.6465 11.5C11.1988 11.5 11.6465 11.0523 11.6465 10.5L11.6465 1.5ZM2.35359 11.2071L11.3536 2.20711L9.93938 0.792893L0.939378 9.79289L2.35359 11.2071Z" fill="#326AFD"/>
</svg>
