<svg width="1815" height="314" viewBox="0 0 1815 314" fill="none" xmlns="http://www.w3.org/2000/svg">
<path d="M451.4 298H393V28.8H451.4V137.2H485.8C489 128.8 494.2 120.4 500.6 111.6L565.8 28.8H632.2L555.4 127.6C544.6 142 539 152 539 162C539 172 544.6 181.6 555.4 196L634.6 298H563L500.6 216C494.2 207.6 489.4 199.2 486.2 190.8H451.4V298ZM721.394 298H664.594V184.4C664.594 133.6 693.394 94.8 752.194 94.8C764.994 94.8 778.994 97.2 788.994 101.6V156.8C779.394 151.2 767.794 148.4 757.394 148.4C734.994 148.4 721.394 162.8 721.394 186.4V298ZM904.938 303.2C847.338 303.2 806.938 256 806.938 198.4C806.938 141.6 853.338 94 914.138 94C976.138 94 1021.74 138.8 1021.74 198.4V298H967.738V274.8C953.738 292.4 932.138 303.2 904.938 303.2ZM914.138 250C943.338 250 964.938 226.8 964.938 198.8C964.938 170.8 943.338 147.6 914.138 147.6C884.938 147.6 863.738 170.8 863.738 198.8C863.738 226.8 884.938 250 914.138 250ZM1165.68 303.2C1106.08 303.6 1059.28 256 1059.28 198.8C1059.28 141.2 1106.08 94 1165.68 94.4C1203.68 94.8 1238.88 112 1256.88 150.4L1210.08 176C1201.28 158.8 1185.28 148 1165.68 148C1137.28 148 1116.08 170.8 1116.08 198.8C1116.08 226.8 1137.28 249.6 1165.68 249.6C1185.28 249.6 1201.28 238.8 1210.08 221.6L1256.88 247.2C1238.88 285.6 1203.68 302.8 1165.68 303.2ZM1355.57 298H1298.77V8.79998H1355.57V176.8H1374.37C1376.37 173.2 1378.77 169.6 1381.57 166L1436.37 100H1503.97L1421.57 198.4L1503.57 298H1435.97L1381.17 230.8C1378.37 227.2 1375.97 223.2 1373.97 219.2H1355.57V298ZM1570.53 70.4C1551.33 70.4 1535.33 54.8 1535.33 35.2C1535.33 16 1551.33 -2.57492e-05 1570.53 -2.57492e-05C1589.73 -2.57492e-05 1605.33 16 1605.33 35.2C1605.33 54.8 1589.73 70.4 1570.53 70.4ZM1542.13 100H1598.93V298H1542.13V100ZM1756.44 303.6C1699.24 303.6 1670.84 269.2 1670.84 219.6V148H1634.44V100H1670.84V49.6H1727.64V100H1797.64V148H1727.64V218C1727.64 240 1740.84 252.8 1761.64 252.8C1773.24 252.8 1788.04 249.2 1797.64 243.2V294C1787.64 300.4 1770.44 303.6 1756.44 303.6Z" fill="#0C1419"/>
<path d="M131 188V309C131 311.761 128.761 314 126 314H5C2.23857 314 0 311.761 0 309V188C0 185.239 2.23859 183 5 183H126C128.761 183 131 185.239 131 188Z" fill="#92EC47"/>
<path d="M5 164C2.23859 164 -0.00869751 161.76 0.083313 159.001C1.01404 131.084 9.72449 103.944 25.2795 80.6645C41.7617 55.9971 65.1885 36.7713 92.5974 25.4181C120.006 14.0649 150.166 11.0944 179.263 16.8822C208.361 22.6699 235.088 36.956 256.066 57.9339C277.044 78.9117 291.33 105.639 297.118 134.736C302.906 163.833 299.935 193.993 288.582 221.402C277.229 248.811 258.003 272.238 233.336 288.72C210.056 304.275 182.916 312.986 155 313.917C152.24 314.009 150 311.761 150 309L150 266.5C150 263.739 152.24 261.513 154.998 261.372C172.527 260.472 189.523 254.854 204.168 245.068C220.202 234.355 232.699 219.127 240.078 201.311C247.458 183.496 249.389 163.892 245.627 144.979C241.864 126.065 232.578 108.693 218.943 95.057C205.307 81.4214 187.934 72.1355 169.021 68.3734C150.108 64.6114 130.504 66.5422 112.688 73.9218C94.8725 81.3013 79.6451 93.7981 68.9317 109.832C59.146 124.477 53.5278 141.473 52.6282 159.002C52.4866 161.76 50.2614 164 47.5 164H5Z" fill="#326AFD"/>
</svg>
