<svg width="300" height="300" viewBox="0 0 300 300" fill="none" xmlns="http://www.w3.org/2000/svg">
<path d="M131 174V295C131 297.761 128.761 300 126 300H5C2.23857 300 0 297.761 0 295V174C0 171.239 2.23859 169 5 169H126C128.761 169 131 171.239 131 174Z" fill="#92EC47"/>
<path d="M5 150C2.23858 150 -0.00870233 147.76 0.08331 145.001C1.01403 117.084 9.72447 89.9443 25.2795 66.6645C41.7617 41.9971 65.1885 22.7713 92.5974 11.4181C120.006 0.0649487 150.166 -2.90557 179.263 2.88218C208.361 8.66994 235.088 22.956 256.066 43.9339C277.044 64.9117 291.33 91.6391 297.118 120.736C302.906 149.833 299.935 179.993 288.582 207.402C277.229 234.811 258.003 258.238 233.336 274.72C210.056 290.275 182.916 298.986 155 299.917C152.24 300.009 150 297.761 150 295L150 252.5C150 249.739 152.241 247.513 154.998 247.372C172.527 246.472 189.523 240.854 204.168 231.068C220.202 220.355 232.699 205.127 240.078 187.311C247.458 169.496 249.389 149.892 245.627 130.979C241.864 112.065 232.578 94.6926 218.943 81.057C205.307 67.4214 187.934 58.1355 169.021 54.3734C150.108 50.6114 130.504 52.5422 112.688 59.9218C94.8725 67.3013 79.6451 79.7981 68.9317 95.8319C59.146 110.477 53.5277 127.473 52.6282 145.002C52.4866 147.76 50.2614 150 47.5 150H5Z" fill="#326AFD"/>
</svg>
